<?xml version="1.0" encoding="UTF-8" standalone="no"?>
<!-- Generator: Adobe Illustrator 19.0.0, SVG Export Plug-In . SVG Version: 6.00 Build 0)  -->

<svg
   xmlns:dc="http://purl.org/dc/elements/1.1/"
   xmlns:cc="http://creativecommons.org/ns#"
   xmlns:rdf="http://www.w3.org/1999/02/22-rdf-syntax-ns#"
   xmlns:svg="http://www.w3.org/2000/svg"
   xmlns="http://www.w3.org/2000/svg"
   xmlns:sodipodi="http://sodipodi.sourceforge.net/DTD/sodipodi-0.dtd"
   xmlns:inkscape="http://www.inkscape.org/namespaces/inkscape"
   version="1.1"
   id="Capa_1"
   x="0px"
   y="0px"
   viewBox="0 0 512 512"
   style="enable-background:new 0 0 512 512;"
   xml:space="preserve"
   sodipodi:docname="doorway.svg"
   inkscape:version="0.92.4 (5da689c313, 2019-01-14)"><metadata
   id="metadata49"><rdf:RDF><cc:Work
       rdf:about=""><dc:format>image/svg+xml</dc:format><dc:type
         rdf:resource="http://purl.org/dc/dcmitype/StillImage" /></cc:Work></rdf:RDF></metadata><defs
   id="defs47" /><sodipodi:namedview
   pagecolor="#ffffff"
   bordercolor="#666666"
   borderopacity="1"
   objecttolerance="10"
   gridtolerance="10"
   guidetolerance="10"
   inkscape:pageopacity="0"
   inkscape:pageshadow="2"
   inkscape:window-width="1366"
   inkscape:window-height="705"
   id="namedview45"
   showgrid="false"
   inkscape:zoom="0.4609375"
   inkscape:cx="-14.101695"
   inkscape:cy="256"
   inkscape:window-x="-8"
   inkscape:window-y="-8"
   inkscape:window-maximized="1"
   inkscape:current-layer="Capa_1" />
<g
   id="g6">
	<g
   id="g4">
		<path
   d="M233.582,265.452h-30.2c-4.879,0-8.833,3.955-8.833,8.833c0,4.878,3.954,8.833,8.833,8.833h30.2    c4.88,0,8.833-3.955,8.833-8.833C242.415,269.407,238.461,265.452,233.582,265.452z"
   id="path2"
   style="fill:#ffffff;stroke-width:0.1;stroke-miterlimit:4;stroke-dasharray:none;paint-order:stroke fill markers;fill-opacity:1;opacity:0.99" />
	</g>
</g>
<g
   id="g12">
	<g
   id="g10">
		<path
   d="M413.841,25.645H283.539V8.833c0-2.744-1.276-5.333-3.452-7.004c-2.178-1.672-5.007-2.239-7.658-1.53L95.883,47.378    c-3.867,1.031-6.557,4.533-6.557,8.535v28.531c0,4.878,3.954,8.833,8.833,8.833s8.833-3.955,8.833-8.833V62.7l158.88-42.369    v472.061l-158.88-31.776v-346.4c0-4.878-3.954-8.833-8.833-8.833c-4.879,0-8.833,3.955-8.833,8.833v353.642    c0,4.211,2.971,7.836,7.101,8.661l176.546,35.31c0.575,0.115,1.154,0.172,1.732,0.172c2.025,0,4.007-0.696,5.6-2.002    c2.046-1.678,3.233-4.185,3.233-6.831v-16.81h81.405c4.88,0,8.833-3.955,8.833-8.833c0-4.878-3.954-8.833-8.833-8.833h-81.405    v-25.203h87.431c4.88,0,8.833-3.955,8.833-8.833V77.348c0-4.878-3.954-8.833-8.833-8.833h-87.431V43.311h121.468v425.377h-12.602    c-4.88,0-8.833,3.955-8.833,8.833s3.954,8.833,8.833,8.833h21.435c4.88,0,8.833-3.955,8.833-8.833V34.478    C422.674,29.6,418.719,25.645,413.841,25.645z M362.137,86.181V425.82h-78.597V86.181H362.137z"
   id="path8"
   style="fill:#ffffff;stroke-width:0.1;stroke-miterlimit:4;stroke-dasharray:none;paint-order:stroke fill markers;fill-opacity:1;opacity:0.99" />
	</g>
</g>
<g
   id="g14">
</g>
<g
   id="g16">
</g>
<g
   id="g18">
</g>
<g
   id="g20">
</g>
<g
   id="g22">
</g>
<g
   id="g24">
</g>
<g
   id="g26">
</g>
<g
   id="g28">
</g>
<g
   id="g30">
</g>
<g
   id="g32">
</g>
<g
   id="g34">
</g>
<g
   id="g36">
</g>
<g
   id="g38">
</g>
<g
   id="g40">
</g>
<g
   id="g42">
</g>
</svg>