<?xml version="1.0" encoding="UTF-8" standalone="no"?>
<!-- Generator: Adobe Illustrator 19.0.0, SVG Export Plug-In . SVG Version: 6.00 Build 0)  -->

<svg
   xmlns:dc="http://purl.org/dc/elements/1.1/"
   xmlns:cc="http://creativecommons.org/ns#"
   xmlns:rdf="http://www.w3.org/1999/02/22-rdf-syntax-ns#"
   xmlns:svg="http://www.w3.org/2000/svg"
   xmlns="http://www.w3.org/2000/svg"
   xmlns:sodipodi="http://sodipodi.sourceforge.net/DTD/sodipodi-0.dtd"
   xmlns:inkscape="http://www.inkscape.org/namespaces/inkscape"
   version="1.1"
   id="Capa_1"
   x="0px"
   y="0px"
   viewBox="0 0 512 512"
   style="enable-background:new 0 0 512 512;"
   xml:space="preserve"
   sodipodi:docname="humidity.svg"
   inkscape:version="0.92.4 (5da689c313, 2019-01-14)"><metadata
   id="metadata61"><rdf:RDF><cc:Work
       rdf:about=""><dc:format>image/svg+xml</dc:format><dc:type
         rdf:resource="http://purl.org/dc/dcmitype/StillImage" /></cc:Work></rdf:RDF></metadata><defs
   id="defs59" /><sodipodi:namedview
   pagecolor="#ffffff"
   bordercolor="#666666"
   borderopacity="1"
   objecttolerance="10"
   gridtolerance="10"
   guidetolerance="10"
   inkscape:pageopacity="0"
   inkscape:pageshadow="2"
   inkscape:window-width="1366"
   inkscape:window-height="705"
   id="namedview57"
   showgrid="false"
   inkscape:zoom="0.4609375"
   inkscape:cx="-14.101695"
   inkscape:cy="256"
   inkscape:window-x="-8"
   inkscape:window-y="-8"
   inkscape:window-maximized="1"
   inkscape:current-layer="Capa_1" />
<g
   id="g6">
	<g
   id="g4">
		<path
   d="M344.864,112.832c-26.176-33.408-53.248-67.904-75.072-104.96C266.912,3.008,261.664,0,256,0s-10.912,3.008-13.76,7.872    c-21.824,37.024-48.896,71.552-75.072,104.928C114.112,180.448,64,244.352,64,320c0,105.888,86.112,192,192,192    s192-86.112,192-192C448,244.384,397.92,180.48,344.864,112.832z M256,480c-88.224,0-160-71.776-160-160    c0-64.608,46.784-124.256,96.352-187.456c21.632-27.584,43.84-55.904,63.648-86.24c19.808,30.336,42.016,58.688,63.648,86.272    C369.216,195.744,416,255.424,416,320C416,408.224,344.224,480,256,480z"
   id="path2"
   style="fill:#ffffff;stroke-width:0.1;stroke-miterlimit:4;stroke-dasharray:none;paint-order:stroke fill markers;fill-opacity:1;opacity:0.99" />
	</g>
</g>
<g
   id="g12">
	<g
   id="g10">
		<path
   d="M208,192c-26.464,0-48,21.536-48,48s21.536,48,48,48s48-21.536,48-48S234.464,192,208,192z M208,256    c-8.832,0-16-7.168-16-16c0-8.832,7.168-16,16-16c8.832,0,16,7.168,16,16C224,248.832,216.832,256,208,256z"
   id="path8"
   style="fill:#ffffff;stroke-width:0.1;stroke-miterlimit:4;stroke-dasharray:none;paint-order:stroke fill markers;fill-opacity:1;opacity:0.99" />
	</g>
</g>
<g
   id="g18">
	<g
   id="g16">
		<path
   d="M304,352c-26.464,0-48,21.536-48,48s21.536,48,48,48s48-21.536,48-48S330.464,352,304,352z M304,416c-8.8,0-16-7.2-16-16    s7.2-16,16-16s16,7.2,16,16S312.8,416,304,416z"
   id="path14"
   style="fill:#ffffff;stroke-width:0.1;stroke-miterlimit:4;stroke-dasharray:none;paint-order:stroke fill markers;fill-opacity:1;opacity:0.99" />
	</g>
</g>
<g
   id="g24">
	<g
   id="g22">
		<path
   d="M347.296,228.704c-6.24-6.24-16.384-6.24-22.624,0l-160,160c-6.24,6.24-6.24,16.384,0,22.624    C167.808,414.432,171.904,416,176,416s8.192-1.568,11.296-4.672l160-160C353.536,245.088,353.536,234.944,347.296,228.704z"
   id="path20"
   style="fill:#ffffff;stroke-width:0.1;stroke-miterlimit:4;stroke-dasharray:none;paint-order:stroke fill markers;fill-opacity:1;opacity:0.99" />
	</g>
</g>
<g
   id="g26">
</g>
<g
   id="g28">
</g>
<g
   id="g30">
</g>
<g
   id="g32">
</g>
<g
   id="g34">
</g>
<g
   id="g36">
</g>
<g
   id="g38">
</g>
<g
   id="g40">
</g>
<g
   id="g42">
</g>
<g
   id="g44">
</g>
<g
   id="g46">
</g>
<g
   id="g48">
</g>
<g
   id="g50">
</g>
<g
   id="g52">
</g>
<g
   id="g54">
</g>
<path
   style="opacity:0.98999999;fill:#ffffff;fill-opacity:1;stroke-width:0.21694915;stroke-miterlimit:4;stroke-dasharray:none;paint-order:stroke fill markers"
   d="M 220.7863,507.9032 C 205.15078,504.83614 183.6522,497.21863 168.56949,489.40136 97.333461,452.48026 54.342082,369.34938 67.452871,293.87581 76.509997,241.73757 97.989372,203.49229 170.72531,109.99322 191.14669,83.742373 216.34465,49.390479 226.72077,33.655678 246.62983,3.4647038 252.94714,-2.1653594 261.67386,2.5050394 c 2.50188,1.3389677 10.86705,12.1707736 18.58926,24.0706806 14.52418,22.381713 34.8992,49.91841 76.97236,104.02767 66.175,85.10605 89.02893,133.89583 89.02893,190.06379 0,52.21198 -18.12632,95.13388 -56.29484,133.30239 -29.19623,29.19624 -58.03808,45.07548 -96.02048,52.8653 -17.96428,3.6843 -56.92646,4.25323 -73.16279,1.06833 z m 85.66232,-35.45021 c 9.48174,-3.00707 23.58513,-9.15339 31.34086,-13.65849 18.09447,-10.5106 46.49442,-38.91055 57.00502,-57.00502 21.83018,-37.58164 27.37543,-87.00826 14.38087,-128.18176 C 398.01982,238.26124 377.261,205.07678 320.39634,131.68814 300.05606,105.43729 277.53394,75.416949 270.34716,64.976271 263.16038,54.535593 256.60171,46.026225 255.77235,46.066562 c -0.82937,0.04034 -6.68934,7.793931 -13.02215,17.230208 -6.33282,9.436277 -27.20855,37.47107 -46.39053,62.29954 -19.18198,24.82847 -42.16678,55.39352 -51.07734,67.92233 -18.50146,26.01425 -39.9191,68.20378 -45.15527,88.94916 -7.664453,30.36604 -6.200072,61.35691 4.32999,91.63611 15.83297,45.52771 59.72432,86.98034 106.37728,100.46668 28.31175,8.1843 65.74498,7.35527 95.61429,-2.1176 z"
   id="path871"
   inkscape:connector-curvature="0" /></svg>